<?xml version="1.0" standalone="no"?>
<!DOCTYPE svg PUBLIC "-//W3C//DTD SVG 20010904//EN"
 "http://www.w3.org/TR/2001/REC-SVG-20010904/DTD/svg10.dtd">
<svg version="1.0" xmlns="http://www.w3.org/2000/svg"
 width="300.000000pt" height="265.000000pt" viewBox="0 0 300.000000 265.000000"
 preserveAspectRatio="xMidYMid meet">
<metadata>
Created by potrace 1.10, written by Peter Selinger 2001-2011
</metadata>
<g transform="translate(0.000000,265.000000) scale(0.100000,-0.100000)"
fill="white" stroke="none">
<path d="M10 1843 c0 -445 -3 -1040 -7 -1321 l-6 -512 521 0 522 0 0 538 -1
537 -33 158 c-18 86 -30 157 -27 157 3 0 226 -313 495 -695 l488 -695 407 0
c223 0 457 -3 519 -7 l112 -6 -2 1319 -3 1319 -519 3 -518 2 6 -357 c12 -711
12 -711 70 -1036 11 -63 11 -76 0 -65 -7 7 -232 337 -499 733 -268 396 -488
721 -489 721 0 1 -234 5 -518 9 l-518 7 0 -809z"/>
</g>
</svg>
